<?xml version="1.0" encoding="UTF-8"?>
<svg width="246px" height="155px" viewBox="0 0 246 155" version="1.1" xmlns="http://www.w3.org/2000/svg" xmlns:xlink="http://www.w3.org/1999/xlink">
    <title>Group 3</title>
    <defs>
        <path d="M32,28.6256469 C49.673112,28.6256469 64,20.8837209 64,7.57391493 C64,-5.73589107 43.4590882,2.54621505 32,2.54621505 C20.5409118,2.54621505 0,-5.73589107 0,7.57391493 C0,20.8837209 14.326888,28.6256469 32,28.6256469 Z" id="path-1"></path>
    </defs>
    <g id="Main" stroke="none" stroke-width="1" fill="none" fill-rule="evenodd">
        <g id="iPhone-13-Copy-20" transform="translate(-51, -379)">
            <g id="Group-3" transform="translate(51, 379)">
                <g id="Group-2">
                    <path d="M158.901432,43.0895169 L198.26039,93.6607274 C211.150314,110.222626 208.173591,134.098046 191.611692,146.98797 C184.939827,152.180602 176.726839,155 168.27242,155 L89.5545033,155 C68.5676828,155 51.5545033,137.98682 51.5545033,117 C51.5545033,108.545581 54.3739016,100.332593 59.5665331,93.6607274 L98.9254914,43.0895169 C111.815416,26.5276183 135.690836,23.550895 152.252734,36.4408193 C154.735669,38.3732572 156.968994,40.6065822 158.901432,43.0895169 Z" id="Triangle-Copy" fill="#000000"></path>
                    <path d="M147.074509,38.5306934 L186.433467,89.1019039 C199.323391,105.663803 196.346668,129.539222 179.784769,142.429147 C173.112904,147.621778 164.899916,150.441176 156.445497,150.441176 L77.7275802,150.441176 C56.7407597,150.441176 39.7275802,133.427997 39.7275802,112.441176 C39.7275802,103.986757 42.5469785,95.7737691 47.73961,89.1019039 L87.0985683,38.5306934 C99.9884926,21.9687948 123.863912,18.9920715 140.425811,31.8819958 C142.908746,33.8144337 145.142071,36.0477587 147.074509,38.5306934 Z" id="Triangle" fill="#FFFFFF"></path>
                </g>
                <g id="Group" transform="translate(65, 89)">
                    <circle id="Oval" fill="#FFCDCD" cx="83.5" cy="14.5" r="14.5"></circle>
                    <circle id="Oval-Copy" fill="#FFCDCD" cx="14.5" cy="14.5" r="14.5"></circle>
                    <g id="Oval" transform="translate(15, 14.4261)">
                        <mask id="mask-2" fill="white">
                            <use xlink:href="#path-1"></use>
                        </mask>
                        <use id="Mask" stroke="#020202" stroke-width="4" fill="#000000" xlink:href="#path-1"></use>
                        <ellipse fill="#9465FF" mask="url(#mask-2)" cx="31.5" cy="31.0739149" rx="20.5" ry="14.5"></ellipse>
                    </g>
                </g>
            </g>
        </g>
    </g>
</svg>